<svg xmlns="http://www.w3.org/2000/svg" viewBox="0 0 1013.88 505.63"><defs><style>.cls-1,.cls-2{fill:#fbb03b;}.cls-2{font-size:153.53px;font-family:FiraSans-Medium, Fira Sans;font-weight:500;letter-spacing:0.12em;}.cls-3{letter-spacing:0em;}</style></defs><g id="Layer_2" data-name="Layer 2"><g id="Layer_1-2" data-name="Layer 1"><path d="M75.57,302.12C44.43,291.24,9.37,274.31,9.37,235c0-29.93,26.6-59.86,69.22-59.86,44.14,0,68.92,33.56,68.92,33.56l-25.09,24.79s-17.53-23.88-43.83-23.88c-18.13,0-32.34,11.18-32.34,25.39,0,18.44,16.62,24.18,45.64,35.06,32.35,12.09,59.25,26.6,59.25,65S117.28,394,77.38,394C24.49,394,0,350.79,0,350.79l27.21-23s18.13,31.74,50.17,31.74c18.14,0,36.88-7.26,36.88-24.49C114.26,317.24,100.66,310.89,75.57,302.12Z"/><path d="M188.3,178.79h36.28V355.93h90.08v34.46H188.3Z"/><path d="M738.22,302.12C707.08,291.24,672,274.31,672,235c0-29.93,26.6-59.86,69.22-59.86,44.14,0,68.92,33.56,68.92,33.56l-25.09,24.79s-17.53-23.88-43.83-23.88c-18.14,0-32.34,11.18-32.34,25.39,0,18.44,16.62,24.18,45.64,35.06,32.35,12.09,59.25,26.6,59.25,65S779.93,394,740,394c-52.9,0-77.38-43.23-77.38-43.23l27.2-23S708,359.56,740,359.56c18.14,0,36.88-7.26,36.88-24.49C776.91,317.24,763.31,310.89,738.22,302.12Z"/><path d="M977.61,178.79h36.27v211.6H977.61v-91H887.22v91H851V178.79h36.27v86.15h90.39Z"/><line x1="619.14" y1="70.67" x2="361.49" y2="497.98"/><path class="cls-1" d="M619.14,70.67c-3.58,10-7.43,19.79-11.38,29.55-2,4.9-4,9.73-6,14.59L595.6,129.3a44.37,44.37,0,0,1-4.06,6.66c-1.45,2.16-2.73,4.42-4.09,6.64L579.4,156l-16.11,26.71L498.88,289.49,434.47,396.32l-32.21,53.41-10,12.2c-3.37,4.05-6.69,8.11-10.1,12.13Q372.08,486.15,361.49,498,367,483.12,373,468.5c2-4.89,4-9.73,6-14.59l6.14-14.5L417.34,386l64.41-106.83,64.42-106.83,16.1-26.7,8.05-13.36c1.33-2.23,2.73-4.43,4-6.71a45.26,45.26,0,0,1,4-6.7l9.94-12.22c3.37-4,6.68-8.1,10.1-12.11C605.11,86.48,612,78.49,619.14,70.67Z"/><polygon points="622.92 284.59 602.41 318.77 510.83 471.4 490.32 505.63 439.99 421.75 460.6 387.67 490.32 437.22 581.9 284.54 552.57 235.62 573.13 201.59 602.41 250.36 622.92 284.59"/><polygon points="398.73 284.59 428.11 333.56 407.51 367.6 378.22 318.82 357.71 284.59 378.22 250.41 469.81 97.73 490.32 63.55 510.88 97.78 540.64 147.43 520.09 181.47 490.37 131.96 398.73 284.59"/><text class="cls-2" transform="translate(0 129.81)">TH<tspan class="cls-3" x="221.4" y="0">E</tspan></text></g></g></svg>