<svg xmlns="http://www.w3.org/2000/svg" viewBox="0 0 1080.18 469.95"><g id="Layer_2" data-name="Layer 2"><g id="Layer_1-2" data-name="Layer 1"><path d="M80.33,253.61C47.23,242,10,224.05,10,182.27c0-31.81,28.28-63.62,73.59-63.62,46.91,0,73.26,35.67,73.26,35.67l-26.67,26.35s-18.64-25.39-46.59-25.39c-19.28,0-34.39,11.89-34.39,27,0,19.61,17.68,25.71,48.53,37.28,34.38,12.85,63,28.28,63,69.09s-36,62.66-78.41,62.66C26,351.3,0,305.35,0,305.35l28.92-24.42s19.28,33.74,53.34,33.74c19.28,0,39.21-7.72,39.21-26C121.47,269.68,107,262.93,80.33,253.61Z"/><path d="M200.17,122.51h38.56v188.3h95.76v36.63H200.17Z"/><path d="M787.14,253.61C754,242,716.77,224.05,716.77,182.27c0-31.81,28.27-63.62,73.58-63.62,46.92,0,73.27,35.67,73.27,35.67L837,180.67s-18.64-25.39-46.6-25.39c-19.28,0-34.38,11.89-34.38,27,0,19.61,17.67,25.71,48.52,37.28,34.39,12.85,63,28.28,63,69.09s-36,62.66-78.41,62.66c-56.24,0-82.26-45.95-82.26-45.95l28.92-24.42s19.28,33.74,53.34,33.74c19.28,0,39.2-7.72,39.2-26C828.27,269.68,813.81,262.93,787.14,253.61Z"/><path d="M1041.62,122.51h38.56V347.44h-38.56V250.72H945.54v96.72H907V122.51h38.56v91.58h96.08Z"/><line x1="660.56" y1="7.56" x2="386.66" y2="461.82"/><path d="M660.56,7.56c-3.92,10.55-8.11,20.92-12.4,31.24-2.12,5.18-4.34,10.29-6.5,15.43L635,69.57a50.67,50.67,0,0,1-4.31,7.08c-1.53,2.3-2.9,4.7-4.34,7l-8.56,14.2-17.12,28.39L532.18,239.85,463.7,353.42,429.47,410.2l-10.48,13c-3.53,4.32-7,8.67-10.6,13q-10.63,12.93-21.73,25.61,6-15.72,12.51-31.17c2.13-5.17,4.35-10.29,6.52-15.43l6.65-15.35,34.23-56.78,68.48-113.56L583.52,116l17.12-28.39,8.56-14.19c1.41-2.38,2.89-4.71,4.21-7.14a52.59,52.59,0,0,1,4.25-7.11l10.45-13.06c3.54-4.32,7-8.67,10.61-13C645.84,24.5,653.07,16,660.56,7.56Z"/><polygon points="664.58 234.97 642.77 271.31 545.41 433.56 523.61 469.95 470.11 380.78 492.02 344.55 523.61 397.22 620.97 234.92 589.79 182.92 611.64 146.74 642.77 198.59 664.58 234.97"/><polygon points="426.25 234.97 457.49 287.03 435.58 323.21 404.45 271.36 382.65 234.97 404.45 198.64 501.81 36.34 523.61 0 545.47 36.39 577.11 89.17 555.26 125.35 523.66 72.72 426.25 234.97"/></g></g></svg>