<svg xmlns="http://www.w3.org/2000/svg" viewBox="0 0 281.93 469.95"><defs><style>.cls-1{fill:#fbb03b;}</style></defs><g id="Layer_2" data-name="Layer 2"><g id="Layer_1-2" data-name="Layer 1"><line x1="277.91" y1="7.56" x2="4.02" y2="461.82"/><path class="cls-1" d="M277.91,7.56C274,18.11,269.8,28.48,265.51,38.8c-2.12,5.18-4.34,10.29-6.5,15.43l-6.68,15.34A50.67,50.67,0,0,1,248,76.65c-1.53,2.3-2.9,4.7-4.34,7l-8.56,14.2L218,126.29,149.53,239.85,81.05,353.42,46.82,410.2l-10.47,13c-3.54,4.32-7,8.67-10.61,13Q15.1,449.14,4,461.82q6-15.72,12.51-31.17c2.12-5.17,4.34-10.29,6.51-15.43l6.65-15.35,34.24-56.78L132.4,229.53,200.87,116,218,87.57l8.56-14.19c1.41-2.38,2.89-4.71,4.22-7.14A50.6,50.6,0,0,1,235,59.13l10.44-13.06c3.54-4.32,7-8.67,10.61-13C263.2,24.5,270.42,16,277.91,7.56Z"/><polygon points="281.93 234.97 260.13 271.31 162.76 433.56 140.96 469.95 87.46 380.78 109.37 344.55 140.96 397.22 238.32 234.92 207.14 182.92 229 146.74 260.13 198.59 281.93 234.97"/><polygon points="43.6 234.97 74.84 287.03 52.93 323.21 21.8 271.36 0 234.97 21.8 198.64 119.16 36.34 140.96 0 162.82 36.39 194.46 89.17 172.61 125.35 141.01 72.72 43.6 234.97"/></g></g></svg>